<?xml version="1.0" encoding="UTF-8" standalone="no"?>
<!-- Created with Inkscape (http://www.inkscape.org/) -->

<svg
   width="25"
   height="25"
   viewBox="0 0 6.6145832 6.6145833"
   version="1.1"
   id="svg5"
   xml:space="preserve"
   inkscape:version="1.2.1 (9c6d41e, 2022-07-14)"
   sodipodi:docname="icon-mark-as-done.svg"
   xmlns:inkscape="http://www.inkscape.org/namespaces/inkscape"
   xmlns:sodipodi="http://sodipodi.sourceforge.net/DTD/sodipodi-0.dtd"
   xmlns="http://www.w3.org/2000/svg"
   xmlns:svg="http://www.w3.org/2000/svg"><sodipodi:namedview
     id="namedview7"
     pagecolor="#ffffff"
     bordercolor="#000000"
     borderopacity="0.25"
     inkscape:showpageshadow="2"
     inkscape:pageopacity="0.0"
     inkscape:pagecheckerboard="0"
     inkscape:deskcolor="#d1d1d1"
     inkscape:document-units="mm"
     showgrid="false"
     inkscape:zoom="9.44"
     inkscape:cx="-6.4618644"
     inkscape:cy="14.830508"
     inkscape:window-width="1309"
     inkscape:window-height="456"
     inkscape:window-x="0"
     inkscape:window-y="38"
     inkscape:window-maximized="0"
     inkscape:current-layer="layer1" /><defs
     id="defs2" /><g
     inkscape:label="Layer 1"
     inkscape:groupmode="layer"
     id="layer1"><path
       d="m 3.3071442,1.8520837 c 0.1646039,0 0.3272731,0.016669 0.4859239,0.04956 0.2897684,0.060126 0.5639099,0.1735335 0.8099228,0.3335237 l 0.090934,0.06221 0.055662,0.039886 -0.2750348,0.2748856 -0.039737,-0.027236 C 4.1053095,2.359141 3.7155286,2.2363578 3.307293,2.2363578 c -1.1029654,0 -1.9969761,0.8941593 -1.9969761,1.9969755 0,1.1028163 0.8941595,1.9969756 1.9969761,1.9969756 1.1029654,0 1.9969761,-0.8941593 1.9969761,-1.9969756 0,-0.068014 -0.00343,-0.1357312 -0.010121,-0.2027038 L 5.2814971,3.930617 5.2998031,3.878974 5.6056449,3.6006655 l 0.022324,0.096738 c 0.00833,0.036612 0.015924,0.073372 0.022622,0.1102817 0.025152,0.1396008 0.037951,0.2818804 0.037951,0.4256484 0,1.3151939 -1.066056,2.3812497 -2.3812503,2.3812497 -1.3151941,-2e-7 -2.38125013,-1.066056 -2.38125013,-2.38125 1.2e-6,-1.3151939 1.06605723,-2.3812496 2.38125153,-2.3812496 z m 1.768376,1.3318627 c 0.080367,0.082451 0.084088,0.2111871 0.012353,0.2979538 l -0.01652,0.017859 -1.6679171,1.6240123 c -0.082004,0.079772 -0.2096985,0.084088 -0.2964653,0.013543 L 3.0889621,5.121093 2.2549292,4.2797677 c -0.086916,-0.08766 -0.086171,-0.2290464 0.00134,-0.3159621 0.081856,-0.081111 0.210443,-0.085874 0.2978052,-0.015032 l 0.018008,0.016371 0.678061,0.684014 1.5092663,-1.4693799 c 0.088404,-0.086023 0.2297909,-0.084237 0.3158136,0.00417 z"
       id="path324"
       style="stroke-width:0.148828;fill:#28b35c;fill-opacity:1" /></g></svg>
