<?xml version="1.0" encoding="UTF-8" standalone="no"?>
<!-- Created with Inkscape (http://www.inkscape.org/) -->

<svg
   width="25"
   height="25"
   viewBox="0 0 6.6145832 6.6145833"
   version="1.1"
   id="svg5"
   xml:space="preserve"
   inkscape:version="1.2.1 (9c6d41e, 2022-07-14)"
   sodipodi:docname="icon-not-applicable.svg"
   xmlns:inkscape="http://www.inkscape.org/namespaces/inkscape"
   xmlns:sodipodi="http://sodipodi.sourceforge.net/DTD/sodipodi-0.dtd"
   xmlns="http://www.w3.org/2000/svg"
   xmlns:svg="http://www.w3.org/2000/svg"><sodipodi:namedview
     id="namedview7"
     pagecolor="#ffffff"
     bordercolor="#000000"
     borderopacity="0.25"
     inkscape:showpageshadow="2"
     inkscape:pageopacity="0.0"
     inkscape:pagecheckerboard="0"
     inkscape:deskcolor="#d1d1d1"
     inkscape:document-units="mm"
     showgrid="false"
     inkscape:zoom="9.44"
     inkscape:cx="-0.31779661"
     inkscape:cy="16.313559"
     inkscape:window-width="1309"
     inkscape:window-height="456"
     inkscape:window-x="0"
     inkscape:window-y="523"
     inkscape:window-maximized="0"
     inkscape:current-layer="layer1" /><defs
     id="defs2" /><g
     inkscape:label="Layer 1"
     inkscape:groupmode="layer"
     id="layer1"><rect
       style="fill:#ffffff;stroke-width:0.446234;stroke-linecap:round"
       id="rect409"
       width="6.6145835"
       height="5.1268625"
       x="0"
       y="1.4877207" /><path
       d="M 1.5477751,2.1620923 5.5364688,5.9883145 5.3110138,6.2233141 4.9912099,5.9167282 C 4.5602411,6.3478833 3.9648315,6.6145833 3.3072172,6.6145833 c -1.3150799,0 -2.38104313,-1.0660559 -2.38104313,-2.3812501 0,-0.6221015 0.23855073,-1.1885413 0.62919063,-1.6127014 L 1.3221713,2.3970919 1.5476263,2.1620923 Z M 1.435122,4.2334821 c 0,1.0340578 0.838276,1.8724066 1.872244,1.8724066 0.5135612,0 0.9787575,-0.2067222 1.3170144,-0.5415855 L 3.6026154,4.5844188 3.1305735,5.0448931 C 3.0558685,5.1176701 2.9394948,5.1215391 2.860474,5.0570971 L 2.8441043,5.0422142 2.0844027,4.2756005 c -0.07917,-0.079772 -0.078574,-0.2086571 0.00134,-0.2878337 0.074556,-0.073819 0.1916739,-0.078283 0.2712901,-0.013692 L 2.3735501,3.9889571 2.9912819,4.6121004 3.3091512,4.302538 1.9230871,2.9727591 C 1.6200993,3.3053899 1.4352709,3.7477071 1.4352709,4.2331845 Z m 4.1556643,-0.677168 c 0.024257,0.082004 0.044347,0.1659434 0.059675,0.2513707 0.025001,0.1381125 0.037948,0.2803922 0.037948,0.4257973 0,0.4149328 -0.1061052,0.8050113 -0.2927195,1.1447859 L 5.0117464,5.0094719 C 5.1194886,4.772984 5.1796099,4.5103024 5.1796099,4.2334821 c 0,-0.096441 -0.00729,-0.1912442 -0.021429,-0.2838152 L 5.5906375,3.5563141 Z M 4.6538459,3.2774102 c 0.073217,0.075158 0.07664,0.1924348 0.011161,0.2714625 L 4.6499767,3.5652438 4.0820979,4.1179915 3.7880391,3.836111 4.3660373,3.2735407 c 0.080509,-0.078432 0.209383,-0.076647 0.2878086,0.00387 z M 3.307366,1.8522321 c 0.1665242,0 0.3290304,0.017115 0.4858816,0.04956 0.3452512,0.071586 0.6629717,0.2178844 0.9357499,0.4211837 L 4.3644003,2.6876044 C 4.0636448,2.4814774 3.699494,2.3609267 3.307366,2.3609267 c -0.3046247,0 -0.5921357,0.072777 -0.846312,0.2018109 L 2.0768131,2.194388 C 2.4359042,1.977099 2.8570512,1.8520833 3.3075148,1.8520833 Z"
       id="path512"
       style="stroke-width:0.148821" /></g></svg>
