<?xml version="1.0" encoding="UTF-8" standalone="no"?>
<!-- Generated by IcoMoon.io -->

<svg
   version="1.1"
   width="25"
   height="20"
   viewBox="0 0 25 20"
   id="svg255"
   sodipodi:docname="icon-setup-guide.svg"
   inkscape:version="1.2.1 (9c6d41e, 2022-07-14)"
   xmlns:inkscape="http://www.inkscape.org/namespaces/inkscape"
   xmlns:sodipodi="http://sodipodi.sourceforge.net/DTD/sodipodi-0.dtd"
   xmlns="http://www.w3.org/2000/svg"
   xmlns:svg="http://www.w3.org/2000/svg">
  <defs
     id="defs259" />
  <sodipodi:namedview
     id="namedview257"
     pagecolor="#ffffff"
     bordercolor="#000000"
     borderopacity="0.25"
     inkscape:showpageshadow="2"
     inkscape:pageopacity="0.0"
     inkscape:pagecheckerboard="0"
     inkscape:deskcolor="#d1d1d1"
     showgrid="false"
     inkscape:zoom="7.375"
     inkscape:cx="-19.525424"
     inkscape:cy="16"
     inkscape:window-width="1309"
     inkscape:window-height="456"
     inkscape:window-x="0"
     inkscape:window-y="467"
     inkscape:window-maximized="0"
     inkscape:current-layer="svg255" />
  <rect
     style="fill:#ffffff;stroke:none;stroke-width:2.06299;stroke-linecap:round"
     id="rect467"
     width="25"
     height="20"
     x="0"
     y="2.3841858e-07" />
  <path
     d="M 21.597468,0 H 3.3782452 C 2.1046284,0 1.07102,0.955748 1.07102,2.133648 v 11.446838 c 0,1.177898 1.0336084,2.133646 2.3072252,2.133646 H 4.892585 L 5.7340436,14.380514 H 3.3782452 c -0.4807314,0 -0.8650308,-0.355728 -0.8650308,-0.800028 V 4.978749 H 22.486784 v 8.579593 c 0,0.444302 -0.384298,0.800028 -0.86503,0.800028 h -2.355798 l 0.841458,1.33362 h 1.51434 c 1.273616,0 2.307226,-0.95575 2.307226,-2.133648 V 2.133648 C 23.904692,0.955748 22.871798,0 21.597468,0 Z M 4.483999,3.245116 c -0.4564448,0 -0.817172,-0.333583 -0.817172,-0.755741 0,-0.422158 0.3607272,-0.755742 0.817172,-0.755742 0.456445,0 0.817172,0.333584 0.817172,0.755742 0,0.422158 -0.360727,0.755741 -0.817172,0.755741 z m 2.4036574,0 c -0.456445,0 -0.8171722,-0.333583 -0.8171722,-0.755741 0,-0.422158 0.3607272,-0.755742 0.8171722,-0.755742 0.4564448,0 0.817172,0.333584 0.817172,0.755742 0,0.422158 -0.3607272,0.755741 -0.817172,0.755741 z m 2.4272296,0 c -0.456445,0 -0.8171722,-0.333583 -0.8171722,-0.755741 0,-0.422158 0.3607272,-0.755742 0.8171722,-0.755742 0.456445,0 0.817172,0.333584 0.817172,0.755742 0,0.422158 -0.360727,0.755741 -0.817172,0.755741 z m 10.8161,-0.200007 H 16.54943 c -0.336441,0 -0.600736,-0.244295 -0.600736,-0.555734 0,-0.31144 0.264295,-0.555735 0.600736,-0.555735 h 3.581556 c 0.336442,0 0.600736,0.244295 0.600736,0.555735 0,0.311439 -0.264294,0.555734 -0.600736,0.555734 z m -6.85453,5.526625 c 0.264295,0.775742 0.345727,1.266474 0.95932,1.533628 0.612879,0.244294 1.022894,-0.06358 1.755777,-0.409302 l 1.101467,1.08361 c -0.36644,0.755742 -0.653594,1.165042 -0.407156,1.777922 0.244294,0.592878 0.75574,0.67431 1.52934,0.961462 v 1.533626 c -0.775742,0.28501 -1.285046,0.366442 -1.52934,0.961464 -0.244295,0.612878 0.04072,1.022894 0.407156,1.77792 l -1.101467,1.08361 C 15.255812,18.52709 14.849369,18.22208 14.235776,18.466374 13.622183,18.731384 13.541465,19.222116 13.276456,20 h -1.550055 c -0.264296,-0.775742 -0.345727,-1.266474 -0.958606,-1.533626 -0.592878,-0.24358 -1.020037,0.06072 -1.755777,0.4093 L 7.9305506,17.792064 C 8.2769916,17.057038 8.5848598,16.627022 8.3177074,16.014144 8.073413,15.421264 7.5619662,15.339834 6.7855098,15.05268 V 13.519054 C 7.5619662,13.234044 8.0705556,13.152612 8.3177074,12.557592 8.5820026,11.944712 8.2769914,11.534698 7.9305506,10.77967 L 9.012018,9.69606 c 0.755741,0.348584 1.162899,0.653596 1.755777,0.409302 0.612879,-0.264296 0.69431,-0.755742 0.958606,-1.533628 z m -0.690739,3.823708 c -1.10504,0 -2.019358,0.90789 -2.019358,2.005786 0,1.12147 0.910747,2.033644 2.019358,2.033644 1.12504,0 2.019358,-0.902174 2.019358,-2.033644 0,-1.107182 -0.897889,-2.005786 -2.019358,-2.005786 z"
     id="path253"
     style="stroke-width:0.714312" />
</svg>
